<?xml version="1.0" encoding="UTF-8"?>
<svg width="164px" height="234px" viewBox="0 0 164 234" version="1.1" xmlns="http://www.w3.org/2000/svg" xmlns:xlink="http://www.w3.org/1999/xlink">
    <!-- Generator: Sketch 61 (89581) - https://sketch.com -->
    <title>Group 3</title>
    <desc>Created with Sketch.</desc>
    <g id="Page-1" stroke="none" stroke-width="1" fill="none" fill-rule="evenodd">
        <g id="homepage" transform="translate(-187.000000, -1496.000000)">
            <g id="noun_money-risk_2195294" transform="translate(187.000000, 1496.000000)" fill="#000000" fill-rule="nonzero">
                <g id="Group">
                    <g id="Group-3" transform="translate(0.037851, 0.752002)">
                        <path d="M98.3431016,70.7464807 L98.3431016,56.6962739 C98.3431016,54.4300019 96.509601,52.5928256 94.2478635,52.5928256 L81.9621492,52.5928256 L81.9621492,36.1790325 C81.9621492,31.6464887 85.6291503,27.9721359 90.1526254,27.9721359 C94.6761005,27.9721359 98.3431016,31.6464887 98.3431016,36.1790325 L98.3431016,40.1593773 C98.3348322,46.1154593 101.522931,51.6160904 106.689894,54.5606316 C111.856857,57.5051727 118.204738,57.4388917 123.30934,54.3871007 C128.413943,51.3353097 131.486953,45.7693036 131.354816,39.8146876 L131.105006,27.8859635 C130.996356,25.6470982 129.160745,23.883469 126.923768,23.8686876 C125.837565,23.8913035 124.804845,24.345474 124.052916,25.1312335 C123.300988,25.9169929 122.89148,26.9699377 122.91453,28.0583083 L123.16434,39.982929 C123.254901,42.9977956 121.712675,45.8264135 119.131867,47.3789445 C116.55106,48.9314755 113.334479,48.9656027 110.721441,47.468177 C108.108403,45.9707514 106.506748,43.1754894 106.533578,40.1593773 L106.533578,36.1790325 C106.533578,27.1139449 99.1995756,19.7652394 90.1526254,19.7652394 C81.1056752,19.7652394 73.771673,27.1139449 73.771673,36.1790325 L73.771673,52.5928256 L61.4859587,52.5928256 C59.2242212,52.5928256 57.3907206,54.4300019 57.3907206,56.6962739 L57.3907206,72.8556532 C18.0331786,85.2407575 -5.99588608,125.015587 1.30135769,165.699252 C8.59860145,206.382918 44.9459037,235.284848 86.14432,233.163004 C127.342736,231.04116 160.541128,198.557415 163.637001,157.338472 C166.732873,116.11953 138.760523,79.0229314 98.3431016,70.7464807 L98.3431016,70.7464807 Z M57.4931016,106.249515 C48.102796,110.557865 40.2929009,117.701875 35.157673,126.680584 C34.429191,127.961881 33.0705919,128.752832 31.5989111,128.752832 C30.8887084,128.754059 30.1907949,128.567198 29.5758635,128.21117 C27.6117258,127.088092 26.9278764,124.582353 28.0483397,122.614067 C34.033623,112.132066 43.1506217,103.796216 54.1145302,98.7812394 C56.1608049,97.9034405 58.5321198,98.8241158 59.4538803,100.85427 C60.3756408,102.884423 59.5102751,105.280563 57.5053873,106.249515 L57.4931016,106.249515 Z M91.9791016,142.458343 C89.9548415,143.469028 87.4961696,142.644153 86.4873873,140.615895 L85.1277683,137.887101 C84.15476,135.909345 82.1437919,134.658326 79.9431968,134.661791 L77.400054,134.661791 C74.5546229,134.656981 72.1267069,136.722943 71.670484,139.537196 C71.214261,142.351449 72.8647335,145.081219 75.5653873,145.979101 L82.7566254,148.387826 C88.6144938,150.329723 92.5038402,155.896323 92.3205283,162.076095 C92.1372163,168.255866 87.9247809,173.581176 81.9621492,175.171032 L81.9621492,183.90317 L73.771673,183.90317 L73.771673,175.54855 C69.2374726,174.904378 65.3120076,172.061078 63.279673,167.948964 L61.9159587,165.216067 C61.249969,163.902305 61.3381147,162.331603 62.1468945,161.100935 C62.9556743,159.870268 64.3608981,159.168607 65.8284836,159.262633 C67.2960691,159.356659 68.6006652,160.231933 69.2464349,161.555791 L70.606054,164.284584 C71.5848223,166.254365 73.5946157,167.496699 75.7906254,167.489377 L78.3337683,167.489377 C81.1791993,167.494188 83.6071153,165.428226 84.0633383,162.613972 C84.5195612,159.799719 82.8690887,157.069949 80.1684349,156.172067 L72.9771968,153.763343 C67.1193284,151.821445 63.229982,146.254846 63.413294,140.075074 C63.5966059,133.895302 67.8090414,128.569992 73.771673,126.980136 L73.771673,118.247998 L81.9621492,118.247998 L81.9621492,126.602619 C86.4963497,127.24679 90.4218146,130.09009 92.4541492,134.202205 L93.8178635,136.935101 C94.308735,137.91122 94.390661,139.043235 94.0454733,140.080104 C93.7002857,141.116972 92.9565142,141.972998 91.9791016,142.458343 Z M127.685483,179.557619 C121.696859,190.031987 112.580212,198.36034 101.619292,203.369929 C101.088995,203.614719 100.511821,203.740748 99.9279587,203.739253 C98.000687,203.739996 96.3336943,202.394154 95.9244893,200.50705 C95.5152843,198.619945 96.4746174,196.702318 98.2284349,195.901653 C107.61874,191.593303 115.428636,184.449294 120.563863,175.470584 C121.262371,174.146341 122.625477,173.308654 124.120125,173.28511 C125.614773,173.261565 127.003484,174.055904 127.74319,175.357492 C128.482896,176.65908 128.456068,178.261113 127.673197,179.537101 L127.685483,179.557619 Z" id="Shape"></path>
                        <path d="M124.962149,16.4291796 C125.188647,16.430223 125.414787,16.4109969 125.637863,16.3716876 C126.709387,16.1927855 127.666072,15.5946314 128.297396,14.7088513 C128.928721,13.8230711 129.182953,12.7222469 129.004149,11.6486187 L127.660911,3.55251523 C127.460502,2.07054281 126.471327,0.815171764 125.079173,0.276009013 C123.687019,-0.263153739 122.112368,-0.000719055569 120.969347,0.960960982 C119.826327,1.92264102 119.295963,3.4312617 119.585102,4.89844627 L120.92834,12.9986532 C121.256383,14.9758055 122.961872,16.4262086 124.962149,16.4291796 L124.962149,16.4291796 Z" id="Path"></path>
                        <path d="M111.939292,22.3011704 C113.129514,23.1543945 114.683603,23.3065574 116.016149,22.7003407 C117.348696,22.0941239 118.257253,20.8216264 118.399578,19.3621855 C118.541902,17.9027446 117.896371,16.4780842 116.706149,15.6248601 L110.043197,10.8525497 C108.203273,9.53357947 105.644623,9.9588858 104.328292,11.802498 C103.011961,13.6461102 103.436416,16.2098898 105.27634,17.5288601 L111.939292,22.3011704 Z" id="Path"></path>
                        <path d="M137.657387,35.6743083 C136.341422,37.5168727 136.764914,40.0794495 138.603387,41.3986187 L145.26634,46.1750325 C146.456561,47.0282566 148.010651,47.1804195 149.343197,46.5742027 C150.675743,45.967986 151.584301,44.6954884 151.726626,43.2360476 C151.86895,41.7766067 151.223419,40.3519463 150.033197,39.4987221 L143.370244,34.7264118 C141.531367,33.4078082 138.973917,33.8321489 137.657387,35.6743083 L137.657387,35.6743083 Z" id="Path"></path>
                        <path d="M139.766435,26.4948945 C140.092946,28.4752066 141.8012,29.9282241 143.80434,29.9295115 C144.029473,29.930389 144.254237,29.9111633 144.475959,29.8720325 L152.555863,28.5302049 C154.018188,28.3117816 155.249482,27.3205279 155.77737,25.9367287 C156.305259,24.5529295 156.047773,22.9914599 155.103693,21.8513624 C154.159614,20.711265 152.675538,20.169573 151.220816,20.4341014 L143.136816,21.775929 C140.905667,22.1465535 139.396743,24.2592411 139.766435,26.4948945 Z" id="Path"></path>
                        <path d="M137.170054,19.2687221 C138.493879,19.2711231 139.737208,18.6321618 140.507673,17.5534807 L145.27453,10.8771704 C146.590861,9.03355821 146.166406,6.46977858 144.326483,5.15080834 C142.486559,3.83183809 139.927909,4.25714442 138.611578,6.10075661 L133.844721,12.7893773 C132.952025,14.0391788 132.83117,15.6840485 133.531577,17.0513705 C134.231985,18.4186925 135.636215,19.2792062 137.170054,19.2810325 L137.170054,19.2687221 Z" id="Path"></path>
                    </g>
                </g>
            </g>
        </g>
    </g>
</svg>
