<svg height='100px' width='100px'  fill="#000000" xmlns="http://www.w3.org/2000/svg" xmlns:xlink="http://www.w3.org/1999/xlink" version="1.1" x="0px" y="0px" viewBox="0 0 64 64" style="enable-background:new 0 0 64 64;" xml:space="preserve"><style type="text/css">
	.st0{fill:none;}
</style><g><path d="M27.4,52h9.3c1.1,0,1.9-1.2,1.3-2.2l-4.6-8.1c-0.6-1-2-1-2.6,0l-4.6,8.1C25.5,50.8,26.2,52,27.4,52z"></path><path d="M59.1,42c-0.1,0-0.2,0-0.2,0c-6.1-1.2-15.7-2.7-27-2.7c0,0-0.1,0-0.1,0c-8.9,0-17.9,0.9-26.6,2.6c-0.6,0.1-1.3-0.3-1.4-0.9   c-0.1-0.6,0.3-1.3,0.9-1.4c8.9-1.8,18-2.7,27.1-2.7c11.5,0,21.3,1.5,27.6,2.7c0.6,0.1,1,0.7,0.9,1.4C60.1,41.6,59.6,42,59.1,42z"></path><g><g><path d="M20.2,26.8l-2.5-2.4c0.1-0.2,0.1-0.4,0.1-0.6c0-0.7-0.4-1.3-0.9-1.6c0,0,0-0.1,0-0.1l-0.3-3.6c-0.1-1.6-1.1-1.6-1.2,0     l-0.3,3.6c0,0,0,0.1,0,0.1c-0.5,0.3-0.9,0.9-0.9,1.6c0,0.2,0,0.3,0.1,0.5l-3.6,1.5c-0.2,0.1-0.3,0.3-0.2,0.5     c0.1,0.1,0.2,0.2,0.3,0.2c0,0,0.1,0,0.1,0l3.7-1.5c0.3,0.4,0.8,0.7,1.4,0.7c0.1,0,0.2,0,0.3,0c0,0,0.1,0.1,0.1,0.1l2.9,2.1     C20.7,28.7,21.4,28,20.2,26.8z"></path><path d="M15.6,35.4C9.2,35.4,4,30.1,4,23.7S9.2,12,15.6,12s11.7,5.2,11.7,11.7S22.1,35.4,15.6,35.4z M15.6,15.3     c-4.7,0-8.4,3.8-8.4,8.4s3.8,8.4,8.4,8.4s8.4-3.8,8.4-8.4S20.3,15.3,15.6,15.3z"></path></g><g><path d="M47.7,12.5c0.2,0.2,0.4,0.4,0.7,0.5c0.4,0.3,0.9,0.4,1.4,0.3c0.3,0,0.5-0.2,0.7-0.3c0.2-0.1,0.4-0.3,0.7-0.4     c0.2-0.1,0.3-0.1,0.4,0.1c0.1,0.1,0.2,0.3,0.3,0.4c0.2,0.3,0.4,0.5,0.8,0.6c0.3,0.1,0.6,0.1,1,0c0.3-0.1,0.5-0.2,0.8-0.4     c0.5-0.3,1.1-0.6,1.6-1c0.2-0.1,0.4-0.3,0.6-0.4c0,0,0,0,0.1,0c0,0.1-0.1,0.1-0.1,0.2c-0.2,0.3-0.4,0.5-0.7,0.8     c-0.5,0.6-0.9,1.2-1.1,1.9c-0.1,0.3-0.1,0.5-0.1,0.8c0,0,0,0.1,0,0.1c-0.6,0.3-1.3,0.6-2.1,0.6c-0.5,0.1-1.1,0-1.6-0.1     c-0.9-0.2-1.8-0.6-2.5-1.2c0,0,0-0.1,0-0.1c0-0.5-0.1-1-0.2-1.5C48.2,13.2,48,12.9,47.7,12.5C47.7,12.5,47.7,12.5,47.7,12.5z"></path><path d="M57,17.1c0.1,0,0.2,0,0.3,0.1c0.9,0.3,1.6,0.8,2.2,1.5c0.1,0.1,0.1,0.3,0.1,0.5c-0.1,0.2-0.2,0.2-0.4,0.3     c-0.1,0-0.1,0-0.2-0.1c-0.6-0.7-1.2-1.3-2-1.9c-0.3-0.2-0.6-0.4-1-0.7c0,0-0.1,0,0-0.1c0-0.1,0-0.2,0.1-0.3c0,0,0-0.1,0.1-0.1     c0.5-0.2,1.1-0.3,1.6-0.3c0.7,0,1.3,0.2,1.9,0.5c0.2,0.1,0.3,0.2,0.5,0.3c0.2,0.1,0.3,0.4,0.2,0.6c-0.1,0.2-0.3,0.3-0.5,0.3     c-0.1,0-0.2-0.1-0.2-0.1c-0.3-0.2-0.6-0.4-0.9-0.5c-0.5-0.2-1-0.2-1.5-0.1C57.1,17,57,17.1,57,17.1C57,17.1,57,17.1,57,17.1z"></path><path d="M55.8,17.6c-0.8,0.3-2.3,0.6-4.2,0.3c-2.3-0.3-3.9-1.1-4.5-1.4c-3.4,2.1-6.1,6.8-6.9,12.6C40,30.1,40,31,39.9,31.8     c0.1,0.6,0.5,2.1,1.9,2.3c1.8,0.3,14,2,14,2s2,0.2,2.6-1.4c0.1-0.2,0.1-0.4,0.2-0.6c0-0.1,0-0.2,0.1-0.2c0.2-0.7,0.3-1.4,0.4-2.1     C60,26,58.6,20.6,55.8,17.6z M53,30.8c-0.3,0.4-0.6,0.7-1.1,0.9c-0.4,0.2-0.9,0.3-1.5,0.4c-0.2,0-0.3,0-0.5,0l-0.1,0.8l-1.2-0.2     l0.1-0.7c-0.6-0.1-1.2-0.2-1.7-0.4c-0.3-0.1-0.6-0.2-0.8-0.3c-0.3-0.2-0.5-0.5-0.4-0.8l0.2-1.1c0-0.3,0.4-0.5,0.7-0.3     c0.2,0.2,0.5,0.4,0.7,0.5c0.5,0.3,1,0.4,1.5,0.5c0,0,0.1,0,0.1,0c0.3,0,0.5,0,0.7,0c0.2,0,0.3-0.1,0.5-0.1c0,0,0.1,0,0.1,0     c0.2-0.1,0.3-0.2,0.4-0.3c0.1-0.1,0.2-0.3,0.2-0.4c0-0.2,0-0.4-0.1-0.6c-0.1-0.1-0.2-0.3-0.3-0.4c0,0-0.1-0.1-0.1-0.1     c-0.2-0.2-0.4-0.3-0.7-0.5c-0.1-0.1-0.2-0.1-0.3-0.2c-0.2-0.1-0.4-0.2-0.6-0.4c-0.8-0.5-1.4-1-1.7-1.6c-0.3-0.6-0.5-1.2-0.4-1.9     c0.1-0.6,0.3-1,0.6-1.4c0.3-0.4,0.6-0.7,1.1-0.9c0.4-0.2,0.9-0.3,1.4-0.4c0.2,0,0.3,0,0.5,0l0.1-0.8l1.2,0.2l-0.1,0.7     c0.5,0.1,1,0.2,1.4,0.3c0.2,0.1,0.4,0.1,0.6,0.2c0.3,0.1,0.6,0.5,0.5,0.9l-0.1,1c0,0.3-0.4,0.5-0.6,0.3c-0.2-0.1-0.4-0.2-0.6-0.3     c-0.2-0.1-0.4-0.2-0.7-0.2c-0.2-0.1-0.4-0.1-0.6-0.1c0,0-0.1,0-0.1,0c-0.2,0-0.5,0-0.7,0c-0.2,0-0.4,0.1-0.5,0.1c0,0-0.1,0-0.1,0     c-0.2,0.1-0.3,0.2-0.4,0.3c-0.1,0.1-0.2,0.3-0.2,0.4c0,0.2,0,0.4,0.1,0.5c0.1,0.2,0.2,0.3,0.3,0.5c0,0,0,0,0,0     c0.2,0.1,0.3,0.3,0.6,0.5c0.2,0.1,0.3,0.2,0.5,0.3c0.1,0.1,0.2,0.1,0.3,0.2c0.4,0.2,0.8,0.5,1.1,0.7c0.3,0.3,0.6,0.5,0.8,0.8     c0.2,0.3,0.4,0.6,0.4,1c0.1,0.3,0.1,0.7,0,1.2C53.5,29.9,53.3,30.4,53,30.8z"></path></g></g></g></svg>